<?xml version="1.0" standalone="no"?>
<!DOCTYPE svg PUBLIC "-//W3C//DTD SVG 20010904//EN"
 "http://www.w3.org/TR/2001/REC-SVG-20010904/DTD/svg10.dtd">
<svg version="1.0" xmlns="http://www.w3.org/2000/svg"
 width="800.000000pt" height="800.000000pt" viewBox="0 0 800.000000 800.000000"
 preserveAspectRatio="xMidYMid meet">
<metadata>
Created by potrace 1.11, written by Peter Selinger 2001-2013
</metadata>
<g transform="translate(0.000000,800.000000) scale(0.100000,-0.100000)"
fill="#000000" stroke="none">
<path d="M5 7988 c-3 -7 -4 -1804 -3 -3993 l3 -3980 3990 0 3990 0 0 3990 0
3990 -3988 3 c-3185 2 -3989 0 -3992 -10z m7745 -3983 l0 -3755 -3755 0 -3755
0 0 3748 c0 2062 3 3752 7 3755 3 4 1693 7 3755 7 l3748 0 0 -3755z"/>
<path d="M1970 5624 c-471 -42 -817 -183 -1046 -427 -204 -217 -299 -507 -266
-814 46 -421 281 -680 787 -868 55 -21 246 -79 425 -130 336 -96 476 -144 565
-195 155 -89 224 -214 195 -353 -24 -116 -105 -192 -255 -240 -100 -31 -332
-31 -491 1 -346 69 -723 244 -1011 468 l-81 64 -186 -363 -185 -362 37 -34
c71 -64 278 -193 433 -270 628 -312 1348 -387 1921 -201 424 139 697 404 794
775 23 87 27 121 28 265 1 128 -3 183 -18 245 -89 386 -341 624 -854 806 -48
17 -208 66 -357 110 -148 44 -308 93 -355 111 -271 99 -393 212 -394 362 0 78
16 125 60 170 145 149 460 151 912 4 187 -60 314 -113 497 -206 77 -39 143
-68 147 -64 4 4 86 170 182 370 l175 363 -47 29 c-272 172 -688 313 -1078 365
-115 16 -443 27 -534 19z"/>
<path d="M4167 5584 c-4 -4 -7 -850 -7 -1881 l0 -1873 475 0 475 0 2 528 3
527 376 3 376 2 279 -530 279 -530 539 0 c436 0 537 2 533 13 -3 7 -168 269
-367 582 -200 314 -373 587 -386 607 l-23 37 77 45 c307 180 507 476 578 857
26 134 26 468 1 593 -104 515 -440 842 -993 965 -237 53 -253 54 -1264 58
-520 3 -948 1 -953 -3z m1888 -768 c178 -41 313 -141 379 -278 45 -95 60 -169
59 -298 -1 -304 -141 -498 -418 -577 -52 -15 -122 -18 -512 -21 l-453 -3 0
594 c0 326 3 597 8 601 4 4 201 6 437 3 351 -3 443 -7 500 -21z"/>
</g>
</svg>
